# xmcd
# 
# Track frame offsets:
#     150
#     15972
#     32500
#     52095
#     70557
#     87830
#     103297
#     118287
#     134360
#     156825
#     176847
#     187847
#     204215
# 
# Disc length: 2936
# 
# Revision: 9
# Processed by: cddbd v1.5.2PL0 Copyright (c) Steve Scherf et al.
# Submitted via: fre:ac v1.0.31
# 
DISCID=a80b760d
DTITLE=Various Artist - Miss Undercover (Soundtrack)
DYEAR=2000
DGENRE=Soundtrack
TTITLE0=Bosson - One In A Million
TTITLE1=Groove Armada - If Everybody Looked The Same
TTITLE2=Tom Jones - She's A Lady  (The BT Remix)
TTITLE3=P.Y.T. - Anywhere USA
TTITLE4=A Teens - Dancing Queen
TTITLE5=Red Venom - Let's Get It On
TTITLE6=Baha Men - Get Ya Party On
TTITLE7=Salt 'N' Pepa - None Of Your Business
TTITLE8=Los Lobos - Mustang Sally
TTITLE9=Bob Schneider - Bullets
TTITLE10=Southern Culture on the Skids - Liquored Up And Lacqured Down
TTITLE11=William Shatner - Miss United States (Berman Brothers Mix)
TTITLE12=Bosson - One In A Million (Bostrom Mix)
EXTD=YEAR: 2000
EXTT0=
EXTT1=
EXTT2=
EXTT3=
EXTT4=
EXTT5=
EXTT6=
EXTT7=
EXTT8=
EXTT9=
EXTT10=
EXTT11=
EXTT12=
PLAYORDER=
